<svg xmlns="http://www.w3.org/2000/svg" xmlns:xlink="http://www.w3.org/1999/xlink" version="1.1" x="0px" y="0px" viewBox="0 0 100 125" enable-background="new 0 0 100 100" xml:space="preserve"><g><g><polygon fill="#000000" points="25.483,8.749 36.524,8.749 31.927,2.767 25.483,2.767   "/><polygon fill="#000000" points="73.921,2.767 67.481,2.767 62.878,8.749 73.921,8.749   "/><polygon fill="#000000" points="59.442,8.749 44.565,8.749 44.565,2.767 54.841,2.767   "/><polygon fill="#000000" points="39.962,8.749 54.839,8.749 54.839,2.767 44.563,2.767   "/></g><polygon fill="#000000" points="65.103,24.034 34.302,24.034 25.483,11.098 73.921,11.098  "/><rect x="31.759" y="26.338" fill="#000000" width="35.887" height="6.509"/><polygon fill="#000000" points="64.71,34.896 35.288,34.896 20.212,92.2 23.89,96.896 49.999,96.896 76.11,96.896 79.788,92.2  "/></g></svg>