<svg xmlns="http://www.w3.org/2000/svg" xmlns:xlink="http://www.w3.org/1999/xlink" version="1.1" x="0px" y="0px" viewBox="0 0 100 125" enable-background="new 0 0 100 100" xml:space="preserve"><rect fill="none" width="100" height="100"/><path d="M88.433,67.9V47.942V47.53v-1.564h-1.033v1.564h-0.635v-1.564h-1.033v1.564h-0.635v-1.564h-1.033v1.564h-0.409v-8.906  v-0.961v-1.581h-1.489v1.581h-0.771v-1.581h-1.488v1.581h-0.271v-5.438c0.498,0.175,0.995-0.363,1.493-0.06c0-0.343,0-0.687,0-1.03  c-0.498-0.305-0.995,0.234-1.493,0.06v-0.146c0-0.068-0.057-0.123-0.125-0.123s-0.124,0.055-0.124,0.123v6.613h-0.27v-1.581h-1.488  v1.581h-0.771v-1.581h-1.488v1.581v0.961v8.906h-0.28v-1.564h-1.032v1.564h-0.636v-1.564h-1.032v1.564h-0.279v-8.906v-0.961v-1.581  H70.62v1.581H69.85v-1.581h-1.488v1.581h-0.79v-1.581h-1.489v1.581h-0.77v-1.581h-1.489v1.581v0.961v8.906h-0.409v-1.564h-1.033  v1.564h-0.635v-1.564h-1.033v1.564h-0.635v-1.564h-1.033v-7.963l-1.75-1.75v-4.627h-0.006v-1.555h-1.24v1.555h-0.427v-1.555h-1.24  v1.555h-0.427v-1.555h-1.24v1.555h-0.428v-1.555h-1.24v1.555h-0.428v-1.555H49.38v1.555h-0.428v-1.555h-1.239v1.555h-0.428v-1.555  h-1.24v1.555h-0.428v-1.555h-1.24v1.555H43.95v-1.555h-1.24v1.555h-0.005v4.627l-1.75,1.75v7.963h-1.033v1.564h-0.635v-1.564h-1.033  v1.564h-0.635v-1.564h-1.033v1.564h-0.41v-8.906v-0.961v-1.581h-1.488v1.581h-0.771v-1.581h-1.489v1.581h-0.789v-1.581H30.15v1.581  h-0.771v-1.581h-1.488v1.581v0.961v8.906h-0.279v-1.564h-1.033v1.564h-0.635v-1.564H24.91v1.564h-0.279v-8.906v-0.961v-1.581h-1.488  v1.581h-0.771v-1.581h-1.489v1.581h-0.27v-5.438c0.498,0.175,0.996-0.363,1.494-0.06c0-0.343,0-0.687,0-1.03  c-0.498-0.305-0.996,0.234-1.494,0.06v-0.146c0-0.068-0.055-0.123-0.124-0.123c-0.068,0-0.124,0.055-0.124,0.123v6.613h-0.271  v-1.581h-1.488v1.581h-0.771v-1.581h-1.488v1.581v0.961v8.906h-0.41v-1.564h-1.033v1.564h-0.635v-1.564h-1.033v1.564H12.6v-1.564  h-1.032v1.564v0.412V67.9h-1.67v2.029h80.204V67.9H88.433z M21.355,48.968h-1.92v-1.673c0-0.531,0.43-0.961,0.959-0.961  c0.531,0,0.961,0.43,0.961,0.961V48.968z M21.355,44.488h-1.92v-1.674c0-0.53,0.43-0.96,0.959-0.96c0.531,0,0.961,0.43,0.961,0.96  V44.488z M32.877,48.968h-1.92v-1.673c0-0.531,0.43-0.961,0.96-0.961s0.96,0.43,0.96,0.961V48.968z M32.877,44.488h-1.92v-1.674  c0-0.53,0.43-0.96,0.96-0.96s0.96,0.43,0.96,0.96V44.488z M48.4,41.698c0-0.883,0.716-1.6,1.6-1.6c0.883,0,1.6,0.717,1.6,1.6v2.79  H48.4V41.698z M48.4,51.939c0-0.883,0.716-1.599,1.6-1.599c0.883,0,1.6,0.716,1.6,1.599v2.789H48.4V51.939z M43.398,41.698  c0-0.883,0.717-1.6,1.601-1.6s1.601,0.717,1.601,1.6v2.79h-3.201V41.698z M43.398,51.939c0-0.883,0.717-1.599,1.601-1.599  s1.601,0.716,1.601,1.599v2.789h-3.201V51.939z M53.92,68.971h-7.841v-6.834c0-2.166,1.755-3.92,3.921-3.92  c2.165,0,3.92,1.754,3.92,3.92V68.971z M56.601,54.729h-3.2v-2.789c0-0.883,0.717-1.599,1.6-1.599c0.885,0,1.601,0.716,1.601,1.599  V54.729z M56.601,44.488h-3.2v-2.79c0-0.883,0.717-1.6,1.6-1.6c0.885,0,1.601,0.717,1.601,1.6V44.488z M69.043,48.968h-1.92v-1.673  c0-0.531,0.43-0.961,0.959-0.961c0.531,0,0.961,0.43,0.961,0.961V48.968z M69.043,44.488h-1.92v-1.674c0-0.53,0.43-0.96,0.959-0.96  c0.531,0,0.961,0.43,0.961,0.96V44.488z M80.564,48.968h-1.92v-1.673c0-0.531,0.43-0.961,0.96-0.961s0.96,0.43,0.96,0.961V48.968z   M80.564,44.488h-1.92v-1.674c0-0.53,0.43-0.96,0.96-0.96s0.96,0.43,0.96,0.96V44.488z"/></svg>