<svg xmlns="http://www.w3.org/2000/svg" xmlns:xlink="http://www.w3.org/1999/xlink" version="1.1" x="0px" y="0px" viewBox="0 0 69.165 86.4575" enable-background="new 0 0 69.165 69.166" xml:space="preserve"><g><path fill-rule="evenodd" clip-rule="evenodd" d="M34.736,25.466c-5.611,0-11.222,0-16.833,0c-0.935,0-1.242-0.304-1.243-1.228   c0-0.377,0.015-0.756-0.004-1.133c-0.027-0.549,0.212-0.903,0.692-1.167c4.123-2.261,8.239-4.534,12.357-6.803   c1.393-0.767,2.791-1.524,4.174-2.308c0.612-0.346,1.17-0.318,1.797-0.006c0.66,0.328,1.109,0.791,1.445,1.441   c0.569,1.101,1.215,2.161,1.806,3.251c0.171,0.314,0.388,0.437,0.736,0.446c1.618,0.042,3.235,0.093,4.852,0.169   c0.208,0.01,0.466,0.142,0.6,0.302c0.692,0.827,1.338,1.693,2.032,2.519c0.186,0.221,0.464,0.419,0.738,0.504   c1.528,0.475,3.067,0.918,4.608,1.355c0.301,0.085,0.424,0.229,0.406,0.541c-0.02,0.336-0.002,0.674-0.004,1.011   c-0.003,0.75-0.364,1.105-1.124,1.105C46.094,25.466,40.415,25.466,34.736,25.466z"/><path fill-rule="evenodd" clip-rule="evenodd" d="M34.734,48.783c-6.043-0.001-12.086-0.003-18.129,0.003   c-0.474,0-0.932-0.059-1.12-0.54c-0.209-0.537-0.244-1.114,0.085-1.631c0.216-0.339,0.583-0.394,0.965-0.393   c3.332,0.004,6.664,0.003,9.996,0.003c4.749,0,9.497-0.004,14.245,0.008c0.283,0.001,0.586,0.08,0.846,0.196   c0.614,0.275,1.213,0.586,1.809,0.9c0.298,0.157,0.555,0.144,0.748-0.13c0.598-0.849,1.403-1.033,2.413-0.997   c2.142,0.076,4.289,0.022,6.434,0.023c0.806,0.001,1.161,0.354,1.167,1.155c0.001,0.095,0,0.189-0.001,0.283   c-0.009,0.746-0.375,1.116-1.125,1.117c-3.358,0.003-6.718,0.001-10.076,0.001C40.238,48.783,37.486,48.783,34.734,48.783z"/><path fill-rule="evenodd" clip-rule="evenodd" d="M34.736,44.896c-5.193,0-10.386-0.002-15.579,0.003   c-0.48,0.001-0.937-0.086-1.097-0.573c-0.18-0.551-0.272-1.162,0.159-1.647c0.166-0.186,0.488-0.318,0.742-0.324   c1.308-0.032,2.617-0.021,3.925-0.006c0.189,0.003,0.391,0.093,0.564,0.185c0.608,0.32,1.203,0.664,1.808,0.99   c0.346,0.188,0.456,0.117,0.47-0.277c0.031-0.903,0.031-0.905,0.953-0.905c7.904-0.001,15.809,0.001,23.713-0.004   c0.479-0.001,0.934,0.082,1.1,0.569c0.188,0.551,0.278,1.173-0.159,1.643c-0.196,0.212-0.591,0.332-0.897,0.334   c-3.358,0.023-6.717,0.015-10.075,0.014C38.486,44.896,36.611,44.896,34.736,44.896z"/><path fill-rule="evenodd" clip-rule="evenodd" d="M49.032,38.417c1.019,0.278,1.276,0.623,1.274,1.682   c-0.002,0.91-0.002,0.911-0.914,0.912c-2.077,0-4.155-0.001-6.232-0.002c-0.51,0-0.589-0.079-0.593-0.58   c-0.001-0.121,0-0.242,0-0.363c-0.003-1.018,0.269-1.376,1.296-1.655c0-0.277,0.002-0.569-0.001-0.861   c-0.002-0.27,0.127-0.396,0.396-0.392c0.202,0.004,0.405-0.008,0.606,0.002c0.34,0.017,0.392-0.136,0.284-0.425   c-0.367-0.983-0.741-1.965-1.079-2.959c-0.119-0.35-0.189-0.73-0.198-1.099c-0.025-1.091-0.009-2.182-0.009-3.11   c-0.438-0.334-0.852-0.537-1.099-0.865c-0.36-0.48-0.194-1.094-0.162-1.651c0.006-0.092,0.259-0.243,0.398-0.244   c2.293-0.015,4.587-0.011,6.88-0.01c0.28,0,0.424,0.142,0.424,0.423c0.001,0.297,0.013,0.594-0.005,0.89   c-0.039,0.678-0.393,1.032-1.268,1.277C49.032,32.384,49.032,35.387,49.032,38.417z"/><path fill-rule="evenodd" clip-rule="evenodd" d="M37.351,29.394c0,0.736,0.02,1.451-0.012,2.163   c-0.009,0.217-0.137,0.439-0.25,0.638c-0.077,0.136-0.208,0.253-0.339,0.344c-0.607,0.424-0.812,1.009-0.688,1.716   c0.032,0.185,0.091,0.429,0.225,0.522c0.956,0.674,1.229,1.592,1.07,2.704c-0.043,0.303-0.007,0.616-0.007,0.914   c1.155,0.381,1.547,1.091,1.291,2.29c-0.062,0.289-0.272,0.328-0.522,0.327c-1.079-0.004-2.158-0.001-3.237-0.001   c-1.146,0-2.293-0.007-3.44,0.004c-0.374,0.003-0.56-0.14-0.534-0.524c0.008-0.121,0-0.243,0-0.364   c-0.001-1.09,0.233-1.408,1.279-1.716c0-2.999,0-6.004,0-9.005c-1.125-0.378-1.569-1.196-1.269-2.321   c0.078-0.291,0.307-0.292,0.547-0.292c1.619,0.003,3.238,0.001,4.856,0.001c0.607,0,1.215,0.009,1.821-0.002   c0.363-0.007,0.524,0.152,0.506,0.51c-0.007,0.135-0.001,0.27-0.002,0.405C38.644,28.77,38.397,29.098,37.351,29.394z"/><path fill-rule="evenodd" clip-rule="evenodd" d="M25.692,38.407c1.124,0.316,1.627,1.229,1.267,2.319   c-0.045,0.135-0.327,0.27-0.5,0.272c-1.618,0.021-3.236,0.012-4.854,0.012c-0.58,0-1.16,0.001-1.739-0.001   c-0.551-0.002-0.616-0.07-0.617-0.638c0-0.095,0.001-0.188,0.001-0.283c0.003-1.056,0.253-1.387,1.295-1.679   c0-0.662-0.001-1.334,0-2.007c0.001-0.491,0.047-0.536,0.528-0.54c0.122-0.001,0.243,0.003,0.364-0.001   c0.066-0.003,0.148,0.006,0.197-0.028c0.381-0.27,0.174-0.668,0.178-1.006c0.001-0.096-0.247-0.27-0.392-0.282   c-0.875-0.074-0.876-0.062-0.876-0.933c0-1.401,0-2.802,0-4.225c-0.643-0.121-1.15-0.409-1.259-1.087   c-0.061-0.381-0.045-0.78-0.025-1.169c0.015-0.295,0.25-0.34,0.501-0.339c1.039,0.004,2.077,0.002,3.115,0.002   c1.187,0,2.373-0.002,3.56,0c0.452,0,0.545,0.096,0.55,0.542c0.003,0.256,0.011,0.513-0.003,0.768   c-0.036,0.601-0.39,1.044-0.977,1.187c-0.244,0.059-0.39,0.171-0.506,0.396c-0.327,0.634-0.687,1.251-1.025,1.879   c-0.173,0.321-0.122,0.411,0.244,0.406c1.134-0.017,0.967-0.009,0.971,1.029c0.006,1.658,0.001,3.317,0.001,4.975   C25.692,38.124,25.692,38.27,25.692,38.407z"/></g></svg>